<mxfile host="app.diagrams.net" modified="2020-09-03T05:28:09.717Z" agent="5.0 (Windows NT 10.0; Win64; x64) AppleWebKit/537.36 (KHTML, like Gecko) Chrome/76.0.3809.132 Safari/537.36" etag="o8_uK_t-O9U6rNSeXfLH" version="13.6.6" type="github">
  <diagram id="L1I_hUmojyBE8BETzkke" name="Page-1">
    <mxGraphModel dx="782" dy="479" grid="1" gridSize="10" guides="1" tooltips="1" connect="1" arrows="1" fold="1" page="1" pageScale="1" pageWidth="827" pageHeight="1169" math="0" shadow="0">
      <root>
        <mxCell id="0" />
        <mxCell id="1" parent="0" />
        <mxCell id="Ej0KS3feqkR7F9QyIKRm-9" style="edgeStyle=orthogonalEdgeStyle;rounded=0;orthogonalLoop=1;jettySize=auto;html=1;exitX=0.5;exitY=1;exitDx=0;exitDy=0;entryX=0.25;entryY=0;entryDx=0;entryDy=0;" edge="1" parent="1" source="Ej0KS3feqkR7F9QyIKRm-4" target="Ej0KS3feqkR7F9QyIKRm-5">
          <mxGeometry relative="1" as="geometry" />
        </mxCell>
        <mxCell id="Ej0KS3feqkR7F9QyIKRm-4" value="cgroup" style="rounded=1;whiteSpace=wrap;html=1;" vertex="1" parent="1">
          <mxGeometry x="193" y="110" width="120" height="50" as="geometry" />
        </mxCell>
        <mxCell id="Ej0KS3feqkR7F9QyIKRm-14" value="" style="edgeStyle=orthogonalEdgeStyle;rounded=0;orthogonalLoop=1;jettySize=auto;html=1;exitX=0.25;exitY=1;exitDx=0;exitDy=0;" edge="1" parent="1" source="Ej0KS3feqkR7F9QyIKRm-5" target="Ej0KS3feqkR7F9QyIKRm-13">
          <mxGeometry relative="1" as="geometry" />
        </mxCell>
        <mxCell id="Ej0KS3feqkR7F9QyIKRm-5" value="bridge" style="rounded=1;whiteSpace=wrap;html=1;arcSize=0;" vertex="1" parent="1">
          <mxGeometry x="130" y="240" width="490" height="50" as="geometry" />
        </mxCell>
        <mxCell id="Ej0KS3feqkR7F9QyIKRm-11" style="edgeStyle=orthogonalEdgeStyle;rounded=0;orthogonalLoop=1;jettySize=auto;html=1;exitX=0.5;exitY=1;exitDx=0;exitDy=0;entryX=0.692;entryY=0.04;entryDx=0;entryDy=0;entryPerimeter=0;" edge="1" parent="1" source="Ej0KS3feqkR7F9QyIKRm-6" target="Ej0KS3feqkR7F9QyIKRm-5">
          <mxGeometry relative="1" as="geometry">
            <mxPoint x="290" y="230" as="targetPoint" />
          </mxGeometry>
        </mxCell>
        <mxCell id="Ej0KS3feqkR7F9QyIKRm-6" value="cgroup" style="rounded=1;whiteSpace=wrap;html=1;" vertex="1" parent="1">
          <mxGeometry x="409" y="110" width="120" height="50" as="geometry" />
        </mxCell>
        <mxCell id="Ej0KS3feqkR7F9QyIKRm-25" style="edgeStyle=orthogonalEdgeStyle;rounded=0;orthogonalLoop=1;jettySize=auto;html=1;entryX=0.5;entryY=0;entryDx=0;entryDy=0;exitX=1;exitY=0.5;exitDx=0;exitDy=0;" edge="1" parent="1" source="Ej0KS3feqkR7F9QyIKRm-12" target="Ej0KS3feqkR7F9QyIKRm-21">
          <mxGeometry relative="1" as="geometry">
            <mxPoint x="320" y="460" as="sourcePoint" />
            <Array as="points">
              <mxPoint x="350" y="455" />
              <mxPoint x="350" y="320" />
              <mxPoint x="440" y="320" />
            </Array>
          </mxGeometry>
        </mxCell>
        <mxCell id="Ej0KS3feqkR7F9QyIKRm-12" value="ethx" style="rounded=1;whiteSpace=wrap;html=1;arcSize=0;" vertex="1" parent="1">
          <mxGeometry x="190" y="420" width="120" height="70" as="geometry" />
        </mxCell>
        <mxCell id="Ej0KS3feqkR7F9QyIKRm-15" value="" style="edgeStyle=orthogonalEdgeStyle;rounded=0;orthogonalLoop=1;jettySize=auto;html=1;" edge="1" parent="1" source="Ej0KS3feqkR7F9QyIKRm-13" target="Ej0KS3feqkR7F9QyIKRm-12">
          <mxGeometry relative="1" as="geometry">
            <Array as="points">
              <mxPoint x="250" y="400" />
              <mxPoint x="250" y="400" />
            </Array>
          </mxGeometry>
        </mxCell>
        <mxCell id="Ej0KS3feqkR7F9QyIKRm-13" value="qdisc" style="rounded=1;whiteSpace=wrap;html=1;arcSize=0;" vertex="1" parent="1">
          <mxGeometry x="193" y="320" width="120" height="50" as="geometry" />
        </mxCell>
        <mxCell id="Ej0KS3feqkR7F9QyIKRm-28" value="" style="edgeStyle=orthogonalEdgeStyle;rounded=0;orthogonalLoop=1;jettySize=auto;html=1;" edge="1" parent="1" source="Ej0KS3feqkR7F9QyIKRm-21" target="Ej0KS3feqkR7F9QyIKRm-27">
          <mxGeometry relative="1" as="geometry" />
        </mxCell>
        <mxCell id="Ej0KS3feqkR7F9QyIKRm-21" value="qdisc" style="rounded=1;whiteSpace=wrap;html=1;arcSize=0;" vertex="1" parent="1">
          <mxGeometry x="380" y="340" width="120" height="50" as="geometry" />
        </mxCell>
        <mxCell id="Ej0KS3feqkR7F9QyIKRm-30" style="edgeStyle=orthogonalEdgeStyle;rounded=0;orthogonalLoop=1;jettySize=auto;html=1;exitX=0.5;exitY=1;exitDx=0;exitDy=0;" edge="1" parent="1" source="Ej0KS3feqkR7F9QyIKRm-27">
          <mxGeometry relative="1" as="geometry">
            <mxPoint x="480" y="290" as="targetPoint" />
            <Array as="points">
              <mxPoint x="440" y="480" />
              <mxPoint x="550" y="480" />
              <mxPoint x="550" y="310" />
              <mxPoint x="480" y="310" />
              <mxPoint x="480" y="290" />
            </Array>
          </mxGeometry>
        </mxCell>
        <mxCell id="Ej0KS3feqkR7F9QyIKRm-27" value="ifb" style="rounded=1;whiteSpace=wrap;html=1;arcSize=0;" vertex="1" parent="1">
          <mxGeometry x="380" y="410" width="120" height="50" as="geometry" />
        </mxCell>
      </root>
    </mxGraphModel>
  </diagram>
</mxfile>
